<svg xmlns="http://www.w3.org/2000/svg" fill="none" viewBox="0 0 422 482">
  <path stroke="#011F4A" stroke-width="4" d="M-62.626 273.711c-3.148-48.909-17.47-98.873 5.744-141.338 29.82-54.549 74.6-120.762 133.965-114.226 59.345 6.535 70.467 92.561 108.644 140.94 31.712 40.186 91.04 62.375 93.026 114.624 2.008 52.818-45.707 90.047-83.946 124.203-34.146 30.5-72.985 56.096-117.724 55.935-44.602-.16-88.678-20.361-116.924-56.78-26.14-33.705-19.987-79.908-22.785-123.358Z" clip-rule="evenodd"/>
  <path stroke="#011F4A" stroke-width="4" d="M125.34 439.031c-3.865-61.45-40.873-159 14.973-177.022 66.853-21.574 98.203 111.846 167.871 118.018 57.261 5.073 90.475-117.725 141.849-90.577 44.929 23.742-29.17 96.598-30.19 149.581-.973 50.563 49.915 100.713 24.548 143.632-26.177 44.288-86.754 43.297-136.207 45.282-52.102 2.092-109.747 4.569-146.99-33.911-37.449-38.692-32.385-99.837-35.854-155.003Z" clip-rule="evenodd"/>
  <path stroke="#011F4A" stroke-width="4" d="M-60.015 636.726c-14.311-52.832-70.539-105.036-43.253-151.863 26.394-45.295 93.936-26.007 144.21-21.393 44.41 4.076 84.937 18.277 121.09 45.742 45.406 34.494 100.78 68.916 106.973 127.514 6.504 61.548-30.002 121.737-76.648 159.448-42.124 34.055-100.654 41.363-151.414 24.927-41.15-13.324-58.693-60.647-80.198-99.922-14.34-26.187-12.886-55.383-20.76-84.453Z" clip-rule="evenodd"/>
  <path stroke="#011F4A" stroke-width="4" d="M-403.529 600.801c34.001-55.161 115.386 70.089 174.058 47.813 63.205-23.996 54.607-170.415 121-159.835 58.176 9.271-9.118 117.905.36 179.174 6.663 43.075 54.358 73.859 45.373 116.475-10.306 48.89-45.212 101.607-92.426 106.72-46.223 5.006-78.539-46.419-107.031-85.118-16.485-22.39 1.01-57.403-14.786-80.34-35.296-51.254-159.311-71.737-126.548-124.889Zm773.792-374.312c-17.356-46.549 64.072-71.914 109.36-87.183 28.25-9.525 54.31 14.147 82.933 22.349 16.552 4.742 35.911 1.612 47.407 14.998 11.174 13.012 7.998 32.308 8.271 49.836.28 18.007-1.914 34.2-6.694 51.494-14.582 52.759 2.702 158.087-48.984 149.953-54.684-8.605 2.938-122.332-36.228-163.362-39.325-41.197-135.806 16.253-156.065-38.085Zm-603.586-121.666c3.044-23.111 25.411-35.194 35.824-55.794 20.463-40.482 10.079-112.215 53.028-119.982 40.551-7.333 42.82 69.897 75.04 96.822 41.98 35.083 131.653 22.676 135.296 78.954 3.56 54.992-76.02 69.17-124.327 90.496-27.492 12.136-56.349 5.543-86.009 2.36-24.96-2.679-52.286-.51-70.087-19.113-17.838-18.642-22.216-47.54-18.765-73.743Z" clip-rule="evenodd"/>
  <path stroke="#011F4A" stroke-width="4" d="M157.286 102.815c-5.562-29.526-22.278-67.718-.208-86.865 22.415-19.447 55.067 25.37 82.541 15.435C304.145 8.05 348.211-108.453 408.585-75.002c53.244 29.5-38.054 114.527-40.046 177.817-1.845 58.609 80.028 142.354 29.211 166.414-59.148 28.003-99.713-75.727-158.131-105.377-17.261-8.76-39.566 8.701-55.232-2.913-17.429-12.92-22.956-36.117-27.101-58.124Z" clip-rule="evenodd"/>
  <path stroke="#011F4A" stroke-width="4" d="M-36.554 53.412C-41.346 5.92-79.739-61.35-39.9-84.365 4.004-109.729 41.171-21.673 91.264-20.428c47.315 1.176 84.725-83.506 125.102-57.57 37.105 23.835 4.7 88.47-10.15 131.41-9.618 27.813-39.919 37.472-56.52 61.378-23.503 33.845-20.123 92.509-58.432 104.154C52.02 230.873 10.976 198.109-14.76 164.78-38.386 134.181-32.6 92.59-36.554 53.412Z" clip-rule="evenodd"/>
</svg>
