<svg xmlns="http://www.w3.org/2000/svg" fill="none" viewBox="0 0 723 681">
  <path stroke="#011F4A" stroke-width="4" d="M-138.664 408.417c-5.579-73.211-30.955-148.001 10.176-211.566C-75.652 115.197 3.69 16.084 108.872 25.868 214.021 35.65 233.727 164.42 301.37 236.838c56.187 60.154 161.305 93.368 164.824 171.579 3.558 79.062-80.984 134.789-148.737 185.917-60.5 45.655-129.314 83.97-208.585 83.728-79.026-.24-157.12-30.478-207.165-84.993-46.316-50.452-35.415-119.612-40.371-184.652Z" clip-rule="evenodd"/>
  <path stroke="#011F4A" stroke-width="4" d="M194.375 655.882c-6.847-91.984-72.418-238.005 26.53-264.981 118.451-32.293 173.997 167.42 297.436 176.659 101.456 7.594 160.305-176.221 251.329-135.584 79.606 35.539-51.684 144.596-53.491 223.906-1.724 75.687 88.441 150.755 43.494 215-46.381 66.294-153.711 64.81-241.332 67.782-92.316 3.132-194.451 6.838-260.439-50.761-66.353-57.918-57.38-149.444-63.527-232.021Z" clip-rule="evenodd"/>
  <path stroke="#011F4A" stroke-width="4" d="M-742.682 898.033c60.244-82.57 204.441 104.917 308.397 71.57 111.988-35.92 96.754-255.091 214.39-239.254 103.076 13.877-16.156 176.49.637 268.202 11.806 64.479 96.312 110.559 80.393 174.349-18.261 73.18-80.108 152.09-163.762 159.75-81.898 7.49-139.156-69.49-189.639-127.41-29.207-33.52 1.79-85.93-26.197-120.26-62.539-76.72-282.269-107.385-224.219-186.947ZM628.332 337.732c-30.751-69.679 113.523-107.647 193.764-130.503 50.054-14.258 96.228 21.176 146.943 33.453 29.326 7.099 63.631 2.413 83.991 22.451 19.8 19.478 14.18 48.362 14.66 74.599.5 26.954-3.39 51.192-11.86 77.08-25.84 78.973 4.79 236.637-86.791 224.462-96.89-12.881 5.205-183.117-64.19-244.534-69.676-61.667-240.621 24.33-276.517-57.008Zm-1069.445-182.12c5.392-34.595 45.023-52.681 63.473-83.517 36.257-60.597 17.858-167.972 93.955-179.599 71.849-10.977 75.869 104.627 132.956 144.931 74.382 52.515 233.265 33.944 239.72 118.184 6.308 82.316-134.693 103.54-220.284 135.462-48.711 18.167-99.839 8.298-152.392 3.533-44.224-4.009-92.642-.764-124.181-28.61-31.606-27.905-39.362-71.161-33.247-110.384Z" clip-rule="evenodd"/>
  <path stroke="#011F4A" stroke-width="4" d="M250.977 152.605c-9.854-44.197-39.472-101.365-.368-130.026 39.715-29.11 97.569 37.975 146.247 23.104 114.328-34.93 192.405-209.321 299.376-159.249 94.338 44.16-67.425 171.434-70.955 266.171-3.268 87.731 141.795 213.087 51.757 249.102-104.798 41.918-176.671-113.354-280.178-157.736-30.583-13.113-70.103 13.025-97.861-4.36-30.88-19.341-40.674-54.064-48.018-87.006Z" clip-rule="evenodd"/>
  <path stroke="#011F4A" stroke-width="4" d="M-92.469 78.656c-8.491-71.09-76.517-171.785-5.93-206.236 77.791-37.966 143.643 93.843 232.398 95.706 83.833 1.76 150.117-124.998 221.658-86.174 65.743 35.677 8.327 132.427-17.984 196.704-17.042 41.632-70.728 56.091-100.143 91.876-41.643 50.661-35.653 138.474-103.531 155.906C64.466 344.294-8.255 295.25-53.853 245.36c-41.863-45.802-31.61-108.058-38.616-166.704Z" clip-rule="evenodd"/>
</svg>
